M48
METRIC,LZ,000.000
;FILE_FORMAT=3:3
;TYPE=PLATED
;Layer: PTH_Through
;EasyEDA v6.5.15, 2022-09-02 19:13:46
;7dfffcf241994c68a0b0b9662bae6326,4d9b886a9f2f4cb0bf4fdc89abf0ebec,10
;Gerber Generator version 0.2
;Holesize 1 = 0.305 mm
T01C0.305
;Holesize 2 = 0.798 mm
T02C0.798
;Holesize 3 = 1.000 mm
T03C1.000
;Holesize 4 = 1.199 mm
T04C1.199
;Holesize 5 = 1.200 mm
T05C1.200
%
G05
G90
T01
X055862Y076345
X040637Y078967
X048853Y060923
X104161Y060930
X039820Y080483
T02
X065021Y082611
X067003Y082611
X075021Y082611
X077003Y082611
X085021Y082611
X087003Y082611
X095021Y082611
X097003Y082611
X065021Y072611
X067003Y072611
X075021Y072611
X077003Y072611
X085021Y072611
X087003Y072611
X095021Y072611
X097003Y072611
X065021Y062611
X067003Y062611
X075021Y062611
X077003Y062611
X085021Y062611
X087003Y062611
X095021Y062611
X097003Y062611
T03
X102743Y084836
X105283Y084836
X105283Y077216
X102743Y077216
X107823Y084836
X107823Y077216
X110363Y084836
X110363Y077216
X112903Y084836
X112903Y077216
X115443Y084836
X115443Y077216
X117983Y084836
X117983Y077216
T04
X105029Y069723
X107531Y069723
X110030Y069723
X112530Y069723
X115029Y069723
T05
X059292Y083075
X056752Y083075
X054212Y083075
X051672Y083075
X049132Y083075
X046592Y083075
X044052Y083075
X041512Y083075
X038972Y083075
X036432Y083075
X033892Y083075
X031352Y083075
X028812Y083075
X026272Y083075
X023732Y083075
X021192Y083075
X018652Y083075
X016112Y083075
X013572Y083075
X011032Y083075
X059292Y065295
X056752Y065295
X054212Y065295
X051672Y065295
X049132Y065295
X046592Y065295
X044052Y065295
X041512Y065295
X038972Y065295
X036432Y065295
X033892Y065295
X031352Y065295
X028812Y065295
X026272Y065295
X023749Y065278
X021082Y065278
X018652Y065295
X016112Y065295
X013572Y065295
X011032Y065295
M30
