G04 Layer: TopLayer*
G04 EasyEDA v6.5.15, 2022-09-02 19:13:46*
G04 7dfffcf241994c68a0b0b9662bae6326,4d9b886a9f2f4cb0bf4fdc89abf0ebec,10*
G04 Gerber Generator version 0.2*
G04 Scale: 100 percent, Rotated: No, Reflected: No *
G04 Dimensions in millimeters *
G04 leading zeros omitted , absolute positions ,4 integer and 5 decimal *
%FSLAX45Y45*%
%MOMM*%

%ADD10C,0.2540*%
%ADD11R,1.1989X2.1590*%
%ADD12C,1.6000*%
%ADD13C,1.8000*%
%ADD14R,1.5748X1.8000*%
%ADD15C,0.6096*%

%LPD*%
D10*
X11252972Y6972297D02*
G01*
X11212611Y6972297D01*
X10365369Y6125055D01*
X4935433Y6125055D01*
X4909601Y6150886D01*
X2485120Y6150886D01*
X2108210Y6527797D01*
X11544310Y7721597D02*
G01*
X11217564Y8048343D01*
X3982044Y8048343D01*
X3643208Y6529473D02*
G01*
X4213158Y7099424D01*
X10875909Y7099424D01*
X11003036Y6972297D01*
X10753100Y6972297D02*
G01*
X10436489Y6655686D01*
X4023420Y6655686D01*
X3897208Y6529473D01*
X10416067Y6092949D02*
G01*
X10407380Y6084262D01*
X4893396Y6084262D01*
X4885319Y6092339D01*
X8700272Y6397012D02*
G01*
X8686429Y6410855D01*
X4777826Y6410855D01*
X4659208Y6529473D01*
X8700272Y6261097D02*
G01*
X8700272Y6397012D01*
X2627208Y8307473D02*
G01*
X2746410Y8426676D01*
X3187659Y8426676D01*
X3262208Y8352127D01*
X3262208Y8266656D01*
X3572164Y7956699D01*
X10801207Y7956699D01*
X11036310Y7721597D01*
X10274310Y7721597D02*
G01*
X3721084Y7721597D01*
X3135208Y8307473D01*
X10782310Y7721597D02*
G01*
X10607202Y7896705D01*
X4063679Y7896705D01*
X9700270Y8125178D02*
G01*
X9694301Y8119209D01*
X4847473Y8119209D01*
X4659208Y8307473D01*
X9700270Y8261093D02*
G01*
X9700270Y8125178D01*
X8700272Y7261095D02*
G01*
X8700272Y7397010D01*
X8700272Y7397010D02*
G01*
X8462807Y7634475D01*
X5586206Y7634475D01*
X11798310Y8483597D02*
G01*
X11544310Y8483597D01*
X11544310Y8483597D02*
G01*
X11290310Y8483597D01*
X11290310Y8483597D02*
G01*
X11036310Y8483597D01*
X11036310Y8483597D02*
G01*
X10782310Y8483597D01*
X10782310Y8483597D02*
G01*
X10528310Y8483597D01*
X10528310Y8483597D02*
G01*
X10274310Y8483597D01*
X10274310Y8483597D02*
G01*
X9588738Y8483597D01*
X9502150Y8397008D01*
X9502150Y8261093D02*
G01*
X9502150Y8397008D01*
X7502154Y6261097D02*
G01*
X6700276Y6261097D01*
X7502154Y7397010D02*
G01*
X6700276Y7397010D01*
X6700276Y7261095D02*
G01*
X6700276Y7397010D01*
X7502154Y7261095D02*
G01*
X7502154Y7386901D01*
X7502154Y7386901D02*
G01*
X7502154Y7397010D01*
X7502154Y7397010D02*
G01*
X7502281Y7397137D01*
X8502025Y7397137D01*
X8502152Y7397010D01*
X8502152Y7261095D02*
G01*
X8502152Y7397010D01*
X7502154Y8261093D02*
G01*
X6700276Y8261093D01*
X4151208Y8307473D02*
G01*
X4281459Y8437725D01*
X5290957Y8437725D01*
X5421208Y8307473D01*
X7700274Y8397008D02*
G01*
X7669184Y8428098D01*
X5795832Y8428098D01*
X5675208Y8307473D01*
X7700274Y8261093D02*
G01*
X7700274Y8397008D01*
X6502156Y8261093D02*
G01*
X5975588Y8261093D01*
X5929208Y8307473D01*
D11*
G01*
X6502145Y8261095D03*
G01*
X6700265Y8261095D03*
G01*
X7502143Y8261095D03*
G01*
X7700263Y8261095D03*
G01*
X8502141Y8261095D03*
G01*
X8700261Y8261095D03*
G01*
X9502140Y8261095D03*
G01*
X9700259Y8261095D03*
G01*
X6502145Y7261097D03*
G01*
X6700265Y7261097D03*
G01*
X7502143Y7261097D03*
G01*
X7700263Y7261097D03*
G01*
X8502141Y7261097D03*
G01*
X8700261Y7261097D03*
G01*
X9502140Y7261097D03*
G01*
X9700259Y7261097D03*
G01*
X6502145Y6261100D03*
G01*
X6700265Y6261100D03*
G01*
X7502143Y6261100D03*
G01*
X7700263Y6261100D03*
G01*
X8502141Y6261100D03*
G01*
X8700261Y6261100D03*
G01*
X9502140Y6261100D03*
G01*
X9700259Y6261100D03*
D12*
G01*
X10274300Y8483600D03*
G01*
X10528300Y8483600D03*
G01*
X10528300Y7721600D03*
G01*
X10274300Y7721600D03*
G01*
X10782300Y8483600D03*
G01*
X10782300Y7721600D03*
G01*
X11036300Y8483600D03*
G01*
X11036300Y7721600D03*
G01*
X11290300Y8483600D03*
G01*
X11290300Y7721600D03*
G01*
X11544300Y8483600D03*
G01*
X11544300Y7721600D03*
G01*
X11798300Y8483600D03*
G01*
X11798300Y7721600D03*
D13*
G01*
X10502900Y6972300D03*
G01*
X10753090Y6972300D03*
G01*
X11003025Y6972300D03*
G01*
X11252961Y6972300D03*
G01*
X11502897Y6972300D03*
G01*
X5929198Y8307476D03*
G01*
X5675198Y8307476D03*
G01*
X5421198Y8307476D03*
G01*
X5167198Y8307476D03*
G01*
X4913198Y8307476D03*
G01*
X4659198Y8307476D03*
G01*
X4405198Y8307476D03*
G01*
X4151198Y8307476D03*
G01*
X3897198Y8307476D03*
G01*
X3643198Y8307476D03*
G01*
X3389198Y8307476D03*
G01*
X3135198Y8307476D03*
G01*
X2881198Y8307476D03*
G01*
X2627198Y8307476D03*
G01*
X2373198Y8307476D03*
G01*
X2119198Y8307476D03*
G01*
X1865198Y8307476D03*
G01*
X1611198Y8307476D03*
G01*
X1357198Y8307476D03*
D14*
G01*
X1103198Y8307476D03*
D13*
G01*
X5929198Y6529476D03*
G01*
X5675198Y6529476D03*
G01*
X5421198Y6529476D03*
G01*
X5167198Y6529476D03*
G01*
X4913198Y6529476D03*
G01*
X4659198Y6529476D03*
G01*
X4405198Y6529476D03*
G01*
X4151198Y6529476D03*
G01*
X3897198Y6529476D03*
G01*
X3643198Y6529476D03*
G01*
X3389198Y6529476D03*
G01*
X3135198Y6529476D03*
G01*
X2881198Y6529476D03*
G01*
X2627198Y6529476D03*
G01*
X2374900Y6527800D03*
G01*
X2108200Y6527800D03*
G01*
X1865198Y6529476D03*
G01*
X1611198Y6529476D03*
G01*
X1357198Y6529476D03*
G01*
X1103198Y6529476D03*
D15*
G01*
X5586196Y7634478D03*
G01*
X4063669Y7896707D03*
G01*
X4885309Y6092342D03*
G01*
X10416057Y6092952D03*
G01*
X3982034Y8048345D03*
M02*
